<svg width="277" height="234" xmlns="http://www.w3.org/2000/svg" xmlns:xlink="http://www.w3.org/1999/xlink"><svg id="clear-view-escapes" viewBox="-1 -1 144.4 61.5" width="144.4" height="61.5" xmlns="http://www.w3.org/2000/svg"><path d="M9.8 25.5l-4-12.9c.1 2.6.2 4.4.2 5.2v7.6H2.9V9.1h4.7l3.9 12.6h.1l4.1-12.6h4.7v16.4h-3.2v-9.1c0-.5.1-1.8.2-3.8h-.1L13 25.5H9.8zm22.5 0l-.7-1.7h-.1c-.6.7-1.2 1.2-1.8 1.5-.6.3-1.4.4-2.4.4-1.2 0-2.2-.3-2.8-1-.7-.7-1-1.7-1-2.9 0-1.3.5-2.3 1.4-2.9.9-.6 2.3-1 4.2-1l2.2-.1v-.6c0-1.3-.7-1.9-2-1.9-1 0-2.2.3-3.5.9l-1.1-2.3c1.4-.8 3-1.1 4.8-1.1 1.7 0 3 .4 3.9 1.1s1.3 1.8 1.3 3.3v8.4h-2.4zm-1-5.8H30c-1 0-1.7.2-2.2.5s-.8.9-.8 1.6c0 1 .6 1.4 1.7 1.4.8 0 1.4-.2 1.9-.7.5-.5.7-1.1.7-1.8v-1zm10.2-1l1.5-1.9 3.5-3.8h3.9l-5 5.4 5.3 7.1h-4l-3.6-5.1-1.5 1.2v3.9h-3.4V8h3.4v7.8l-.1 2.9zm16.6 7c-2 0-3.6-.6-4.7-1.7s-1.7-2.7-1.7-4.7c0-2.1.5-3.7 1.6-4.9 1.1-1.1 2.5-1.7 4.4-1.7 1.8 0 3.2.5 4.1 1.5s1.5 2.4 1.5 4.2v1.7h-8.1c0 1 .3 1.7.9 2.3s1.3.8 2.3.8c.8 0 1.5-.1 2.1-.2s1.4-.4 2.1-.8v2.7c-.6.3-1.2.5-1.9.7-.7 0-1.6.1-2.6.1zm-.4-10.6c-.7 0-1.3.2-1.7.7-.4.5-.6 1.1-.7 2h4.8c0-.8-.2-1.5-.7-2-.4-.4-1-.7-1.7-.7zm20.9 10.4h-3.5V12h-4.5V9.1H83V12h-4.5v13.5zm13.8-12.8c.5 0 .8 0 1.2.1l-.3 3.2c-.3-.1-.6-.1-1-.1-1.1 0-1.9.3-2.6.8s-.9 1.3-.9 2.4v6.4h-3.4V12.9H88l.5 2.1h.2c.4-.7.9-1.3 1.6-1.7.6-.4 1.3-.6 2.1-.6zm11.4 12.8l-.7-1.7h-.1c-.6.7-1.2 1.2-1.8 1.5-.6.3-1.4.4-2.4.4-1.2 0-2.2-.3-2.8-1s-1-1.7-1-2.9c0-1.3.5-2.3 1.4-2.9.9-.6 2.3-1 4.2-1l2.2-.1v-.6c0-1.3-.7-1.9-2-1.9-1 0-2.2.3-3.5.9l-1.1-2.3c1.4-.8 3-1.1 4.8-1.1 1.7 0 3 .4 3.9 1.1s1.3 1.8 1.3 3.3v8.4h-2.4zm-1-5.8h-1.3c-1 0-1.7.2-2.2.5s-.7.8-.7 1.5c0 1 .6 1.4 1.7 1.4.8 0 1.4-.2 1.9-.7s.7-1.1.7-1.8v-.9zm9.9 5.8l-4.8-12.6h3.6l2.4 7.2c.3.9.4 1.8.5 2.6h.1c0-.7.2-1.6.5-2.6l2.4-7.2h3.6l-4.8 12.6h-3.5zm15.7.2c-2 0-3.6-.6-4.7-1.7s-1.7-2.7-1.7-4.7c0-2.1.5-3.7 1.6-4.9 1.1-1.1 2.5-1.7 4.4-1.7 1.8 0 3.2.5 4.1 1.5s1.5 2.4 1.5 4.2v1.7h-8.1c0 1 .3 1.7.9 2.3s1.3.8 2.3.8c.8 0 1.5-.1 2.1-.2s1.4-.4 2.1-.8v2.7c-.6.3-1.2.5-1.9.7-.7 0-1.6.1-2.6.1zm-.4-10.6c-.7 0-1.3.2-1.7.7-.4.5-.6 1.1-.7 2h4.8c0-.8-.2-1.5-.7-2-.4-.4-1-.7-1.7-.7zm11.8 10.4h-3.4V8h3.4v17.5zM46.3 53.1h-1.9l-3.3-11c-.2-.5-.3-1.1-.5-1.8s-.3-1.2-.3-1.3c-.2 1-.4 2.1-.8 3.2l-3.2 10.9h-1.9L30 36.7h2l2.6 10.1c.4 1.4.6 2.7.8 3.9.2-1.4.5-2.7.9-4l2.9-10h2l3.1 10.1c.4 1.2.7 2.5.9 3.9.1-1.1.4-2.4.8-3.9l2.6-10.1h2l-4.3 16.4zm6.5-15.7c0-.4.1-.7.3-.9.2-.2.5-.3.8-.3.3 0 .6.1.8.3s.3.5.3.9-.1.7-.3.9-.5.3-.8.3c-.3 0-.6-.1-.8-.3s-.3-.4-.3-.9zm2 15.7H53V40.8h1.9v12.3zm7.9-1.3c.3 0 .6 0 1-.1s.6-.1.7-.2V53c-.2.1-.5.2-.9.2-.4.1-.7.1-1.1.1-2.4 0-3.6-1.3-3.6-3.8v-7.3H57v-.9l1.8-.8.8-2.6h1.1v2.9h3.6v1.4h-3.6v7.2c0 .7.2 1.3.5 1.7s.9.7 1.5.7zm12.6 1.3v-8c0-1-.2-1.8-.7-2.2-.5-.5-1.2-.7-2.1-.7-1.3 0-2.2.4-2.8 1.1-.6.7-.9 1.9-.9 3.5v6.4h-1.9V35.6h1.9v5.3c0 .6 0 1.2-.1 1.6h.1c.4-.6.9-1.1 1.6-1.4.7-.3 1.5-.5 2.3-.5 1.5 0 2.6.4 3.4 1.1.8.7 1.1 1.9 1.1 3.4v8h-1.9zm24.4-16.4v10.6c0 1.9-.6 3.3-1.7 4.4-1.1 1.1-2.7 1.6-4.7 1.6s-3.5-.5-4.6-1.6-1.6-2.6-1.6-4.4V36.7H89v10.7c0 1.4.4 2.4 1.1 3.2.7.7 1.8 1.1 3.3 1.1 1.4 0 2.5-.4 3.2-1.1.7-.7 1.1-1.8 1.1-3.2V36.7h2zm12 13c0 1.1-.4 2-1.3 2.7-.9.6-2.1.9-3.6.9-1.6 0-2.9-.3-3.8-.8v-1.7c.6.3 1.2.5 1.9.7s1.3.3 2 .3c1 0 1.7-.2 2.2-.5.5-.3.8-.8.8-1.4 0-.5-.2-.9-.6-1.2-.4-.3-1.2-.7-2.4-1.2-1.1-.4-2-.8-2.4-1.1-.5-.3-.8-.7-1.1-1.1-.2-.4-.4-.9-.4-1.4 0-1 .4-1.8 1.2-2.4.8-.6 1.9-.9 3.4-.9 1.3 0 2.6.3 3.9.8l-.7 1.5c-1.2-.5-2.4-.8-3.4-.8-.9 0-1.5.1-2 .4s-.7.7-.7 1.1c0 .3.1.6.3.8.2.2.4.5.8.7.4.2 1.1.5 2.2.9 1.5.5 2.4 1.1 3 1.6s.7 1.3.7 2.1z" fill="#fff"/></svg><svg viewBox="-1 -1 144.4 61.5" width="144.4" height="61.5" id="clear-view-escapes1" y="61.5" xmlns="http://www.w3.org/2000/svg"><path d="M9.8 25.5l-4-12.9c.1 2.6.2 4.4.2 5.2v7.6H2.9V9.1h4.7l3.9 12.6h.1l4.1-12.6h4.7v16.4h-3.2v-9.1c0-.5.1-1.8.2-3.8h-.1L13 25.5H9.8zm22.5 0l-.7-1.7h-.1c-.6.7-1.2 1.2-1.8 1.5-.6.3-1.4.4-2.4.4-1.2 0-2.2-.3-2.8-1-.7-.7-1-1.7-1-2.9 0-1.3.5-2.3 1.4-2.9.9-.6 2.3-1 4.2-1l2.2-.1v-.6c0-1.3-.7-1.9-2-1.9-1 0-2.2.3-3.5.9l-1.1-2.3c1.4-.8 3-1.1 4.8-1.1 1.7 0 3 .4 3.9 1.1s1.3 1.8 1.3 3.3v8.4h-2.4zm-1-5.8H30c-1 0-1.7.2-2.2.5s-.8.9-.8 1.6c0 1 .6 1.4 1.7 1.4.8 0 1.4-.2 1.9-.7.5-.5.7-1.1.7-1.8v-1zm10.2-1l1.5-1.9 3.5-3.8h3.9l-5 5.4 5.3 7.1h-4l-3.6-5.1-1.5 1.2v3.9h-3.4V8h3.4v7.8l-.1 2.9zm16.6 7c-2 0-3.6-.6-4.7-1.7s-1.7-2.7-1.7-4.7c0-2.1.5-3.7 1.6-4.9 1.1-1.1 2.5-1.7 4.4-1.7 1.8 0 3.2.5 4.1 1.5s1.5 2.4 1.5 4.2v1.7h-8.1c0 1 .3 1.7.9 2.3s1.3.8 2.3.8c.8 0 1.5-.1 2.1-.2s1.4-.4 2.1-.8v2.7c-.6.3-1.2.5-1.9.7-.7 0-1.6.1-2.6.1zm-.4-10.6c-.7 0-1.3.2-1.7.7-.4.5-.6 1.1-.7 2h4.8c0-.8-.2-1.5-.7-2-.4-.4-1-.7-1.7-.7zm20.9 10.4h-3.5V12h-4.5V9.1H83V12h-4.5v13.5zm13.8-12.8c.5 0 .8 0 1.2.1l-.3 3.2c-.3-.1-.6-.1-1-.1-1.1 0-1.9.3-2.6.8s-.9 1.3-.9 2.4v6.4h-3.4V12.9H88l.5 2.1h.2c.4-.7.9-1.3 1.6-1.7.6-.4 1.3-.6 2.1-.6zm11.4 12.8l-.7-1.7h-.1c-.6.7-1.2 1.2-1.8 1.5-.6.3-1.4.4-2.4.4-1.2 0-2.2-.3-2.8-1s-1-1.7-1-2.9c0-1.3.5-2.3 1.4-2.9.9-.6 2.3-1 4.2-1l2.2-.1v-.6c0-1.3-.7-1.9-2-1.9-1 0-2.2.3-3.5.9l-1.1-2.3c1.4-.8 3-1.1 4.8-1.1 1.7 0 3 .4 3.9 1.1s1.3 1.8 1.3 3.3v8.4h-2.4zm-1-5.8h-1.3c-1 0-1.7.2-2.2.5s-.7.8-.7 1.5c0 1 .6 1.4 1.7 1.4.8 0 1.4-.2 1.9-.7s.7-1.1.7-1.8v-.9zm9.9 5.8l-4.8-12.6h3.6l2.4 7.2c.3.9.4 1.8.5 2.6h.1c0-.7.2-1.6.5-2.6l2.4-7.2h3.6l-4.8 12.6h-3.5zm15.7.2c-2 0-3.6-.6-4.7-1.7s-1.7-2.7-1.7-4.7c0-2.1.5-3.7 1.6-4.9 1.1-1.1 2.5-1.7 4.4-1.7 1.8 0 3.2.5 4.1 1.5s1.5 2.4 1.5 4.2v1.7h-8.1c0 1 .3 1.7.9 2.3s1.3.8 2.3.8c.8 0 1.5-.1 2.1-.2s1.4-.4 2.1-.8v2.7c-.6.3-1.2.5-1.9.7-.7 0-1.6.1-2.6.1zm-.4-10.6c-.7 0-1.3.2-1.7.7-.4.5-.6 1.1-.7 2h4.8c0-.8-.2-1.5-.7-2-.4-.4-1-.7-1.7-.7zm11.8 10.4h-3.4V8h3.4v17.5zM46.3 53.1h-1.9l-3.3-11c-.2-.5-.3-1.1-.5-1.8s-.3-1.2-.3-1.3c-.2 1-.4 2.1-.8 3.2l-3.2 10.9h-1.9L30 36.7h2l2.6 10.1c.4 1.4.6 2.7.8 3.9.2-1.4.5-2.7.9-4l2.9-10h2l3.1 10.1c.4 1.2.7 2.5.9 3.9.1-1.1.4-2.4.8-3.9l2.6-10.1h2l-4.3 16.4zm6.5-15.7c0-.4.1-.7.3-.9.2-.2.5-.3.8-.3.3 0 .6.1.8.3s.3.5.3.9-.1.7-.3.9-.5.3-.8.3c-.3 0-.6-.1-.8-.3s-.3-.4-.3-.9zm2 15.7H53V40.8h1.9v12.3zm7.9-1.3c.3 0 .6 0 1-.1s.6-.1.7-.2V53c-.2.1-.5.2-.9.2-.4.1-.7.1-1.1.1-2.4 0-3.6-1.3-3.6-3.8v-7.3H57v-.9l1.8-.8.8-2.6h1.1v2.9h3.6v1.4h-3.6v7.2c0 .7.2 1.3.5 1.7s.9.7 1.5.7zm12.6 1.3v-8c0-1-.2-1.8-.7-2.2-.5-.5-1.2-.7-2.1-.7-1.3 0-2.2.4-2.8 1.1-.6.7-.9 1.9-.9 3.5v6.4h-1.9V35.6h1.9v5.3c0 .6 0 1.2-.1 1.6h.1c.4-.6.9-1.1 1.6-1.4.7-.3 1.5-.5 2.3-.5 1.5 0 2.6.4 3.4 1.1.8.7 1.1 1.9 1.1 3.4v8h-1.9zm24.4-16.4v10.6c0 1.9-.6 3.3-1.7 4.4-1.1 1.1-2.7 1.6-4.7 1.6s-3.5-.5-4.6-1.6-1.6-2.6-1.6-4.4V36.7H89v10.7c0 1.4.4 2.4 1.1 3.2.7.7 1.8 1.1 3.3 1.1 1.4 0 2.5-.4 3.2-1.1.7-.7 1.1-1.8 1.1-3.2V36.7h2zm12 13c0 1.1-.4 2-1.3 2.7-.9.6-2.1.9-3.6.9-1.6 0-2.9-.3-3.8-.8v-1.7c.6.3 1.2.5 1.9.7s1.3.3 2 .3c1 0 1.7-.2 2.2-.5.5-.3.8-.8.8-1.4 0-.5-.2-.9-.6-1.2-.4-.3-1.2-.7-2.4-1.2-1.1-.4-2-.8-2.4-1.1-.5-.3-.8-.7-1.1-1.1-.2-.4-.4-.9-.4-1.4 0-1 .4-1.8 1.2-2.4.8-.6 1.9-.9 3.4-.9 1.3 0 2.6.3 3.9.8l-.7 1.5c-1.2-.5-2.4-.8-3.4-.8-.9 0-1.5.1-2 .4s-.7.7-.7 1.1c0 .3.1.6.3.8.2.2.4.5.8.7.4.2 1.1.5 2.2.9 1.5.5 2.4 1.1 3 1.6s.7 1.3.7 2.1z"/></svg><svg id="comment" viewBox="-1 -1 66 66" width="66" height="66" x="144.4" xmlns="http://www.w3.org/2000/svg"><path d="M.7.1C.4.1 0 .3 0 .7v46.6c0 .4.3.7.7.7H48l16 16V.7c0-.3-.2-.7-.6-.7h-.1L.7.1z" fill="#f67e7d"/></svg><svg id="facebook" data-name="Layer 1" width="23.23" height="44.01" viewBox="-1 -1 23.23 44.01" x="44.01" y="189" xmlns="http://www.w3.org/2000/svg"><path d="M21.23.31V7H17.4a3.55 3.55 0 0 0-2.85.91 4.26 4.26 0 0 0-.74 2.72v4.77H21l-1 7.47h-6.19V42H6.27V22.85H0v-7.47h6.27V9.85q0-4.69 2.55-7.28A9 9 0 0 1 15.63 0a39.57 39.57 0 0 1 5.6.31z" fill="#fff"/></svg><svg id="fire" viewBox="-1 -1 66 66" width="66" height="66" y="123" xmlns="http://www.w3.org/2000/svg"><style>.est0{fill:#d4953d}</style><path class="est0" d="M56.4 56l-13.7-5.7 13.7-5.7c2.1-.9 3.1-3.3 2.2-5.4-.9-2.1-3.3-3.1-5.4-2.2l-21.4 8.8L10.6 37c-2.1-.9-4.5.1-5.4 2.2-.9 2.1.1 4.5 2.2 5.4l13.7 5.7L7.4 56c-2.1.9-3.1 3.3-2.2 5.4.6 1.6 2.2 2.5 3.8 2.5.5 0 1.1-.1 1.6-.3L32 54.8l21.3 8.9c.5.2 1.1.3 1.6.3 1.6 0 3.2-1 3.8-2.6.8-2.1-.2-4.5-2.3-5.4z"/><path class="est0" d="M31.9 40.6c9.7 0 17.5-7.8 17.5-17.5 0-2.4-1.1-5.6-2.8-9.1-.2-.5-.7-.7-1.2-.6-.5.1-.8.5-.9 1-.1 3.6-1 6.1-2.3 7.8-.1.2-.4.3-.6.1-.2-.1-.3-.4-.2-.6.8-2.2.4-5.5-3.9-10.2-4-4.4-5-7.8-4.9-10.3 0-.5-.2-1-.7-1.2-.5-.2-1-.1-1.3.3-4.1 4.3-9.2 11.3-7.7 18.4.1.3-.1.6-.4.7-.3.1-.6 0-.8-.3-1.1-1.7-2-4.2-1.7-7.6.1-.5-.3-1.1-.8-1.2-.5-.2-1.1.1-1.4.5-1.9 3.4-3.6 7.7-3.6 12.1.2 9.9 8.1 17.7 17.7 17.7z"/></svg><svg id="globe" viewBox="-1 -1 66 66" width="66" height="66" x="66" y="123" xmlns="http://www.w3.org/2000/svg"><path d="M63.9 29.9c-1-16-13.8-28.7-29.8-29.8V0h-4.2v.1C13.9 1.1 1.2 13.9.1 29.9H0v4.2h.1c1 16 13.8 28.7 29.8 29.8v.1h4.2v-.1c16-1 28.7-13.8 29.8-29.8h.1V32l-.1-2.1zM20 7c-2.1 2.7-3.8 6.2-5 10.1H8.6C11.4 12.7 15.4 9.2 20 7zM6.4 21.3h7.5c-.6 2.7-.9 5.6-1 8.5H4.3c.3-2.9 1-5.8 2.1-8.5zM4.3 34.1h8.5c.1 3 .5 5.8 1 8.5H6.4c-1.1-2.6-1.8-5.5-2.1-8.5zm4.3 12.8H15c1.2 3.9 3 7.4 5 10.1-4.6-2.2-8.6-5.7-11.4-10.1zm21.3 12.6c-4.4-1.2-8.2-5.9-10.5-12.5h10.5v12.5zm0-16.8H18.2c-.6-2.7-1-5.5-1.1-8.5h12.8v8.5zm0-12.8H17.1c.1-3 .5-5.9 1.1-8.5h11.7v8.5zm0-12.8H19.4c2.3-6.6 6.1-11.4 10.5-12.5v12.5zm25.5 0H49c-1.3-3.9-3-7.4-5-10.1 4.6 2.2 8.6 5.7 11.4 10.1zM34.1 4.5c4.4 1.2 8.2 5.9 10.5 12.5H34.1V4.5zm0 16.8h11.6c.6 2.7 1 5.5 1.1 8.5H34.1v-8.5zm0 12.8h12.8c-.1 3-.5 5.9-1.1 8.5H34.1v-8.5zm0 25.4V46.9h10.5c-2.3 6.7-6.1 11.4-10.5 12.6zM44 57c2.1-2.7 3.8-6.2 5-10.1h6.4C52.6 51.3 48.6 54.8 44 57zm13.6-14.3h-7.5c.6-2.7.9-5.6 1-8.5h8.5c-.2 2.9-.9 5.8-2 8.5zm-6.4-12.8c-.1-3-.5-5.8-1-8.5h7.5c1.1 2.7 1.8 5.5 2 8.5h-8.5z" fill="#d4953d"/></svg><svg id="instagram" data-name="Layer 1" width="44.01" height="44.01" viewBox="-1 -1 44.01 44.01" y="189" xmlns="http://www.w3.org/2000/svg"><path d="M37.25 35.49V17.77h-3.69a11.77 11.77 0 0 1 .57 3.58 12.12 12.12 0 0 1-1.75 6.36 12.76 12.76 0 0 1-4.76 4.59 13.13 13.13 0 0 1-6.56 1.7 12.78 12.78 0 0 1-9.19-3.71 12 12 0 0 1-3.83-9 11.77 11.77 0 0 1 .49-3.56H4.68v17.76a1.63 1.63 0 0 0 1.6 1.67h29.3a1.63 1.63 0 0 0 1.17-.47 1.59 1.59 0 0 0 .5-1.2zm-7.77-14.57A7.75 7.75 0 0 0 27 15.14a8.28 8.28 0 0 0-6-2.4 8.25 8.25 0 0 0-5.91 2.39 7.75 7.75 0 0 0-2.47 5.78 7.75 7.75 0 0 0 2.47 5.79A8.25 8.25 0 0 0 21 29.1a8.28 8.28 0 0 0 6-2.4 7.75 7.75 0 0 0 2.48-5.78zm7.76-9.84V6.56a1.84 1.84 0 0 0-.54-1.31 1.8 1.8 0 0 0-1.31-.56h-4.78a1.8 1.8 0 0 0-1.31.56 1.84 1.84 0 0 0-.54 1.31v4.52A1.87 1.87 0 0 0 30.6 13h4.8a1.87 1.87 0 0 0 1.85-1.89zM42 5.39v31.23A5.41 5.41 0 0 1 36.62 42H5.39a5.19 5.19 0 0 1-3.8-1.59A5.19 5.19 0 0 1 0 36.62V5.39a5.19 5.19 0 0 1 1.59-3.8A5.19 5.19 0 0 1 5.39 0h31.23a5.19 5.19 0 0 1 3.8 1.59A5.19 5.19 0 0 1 42 5.39z" fill="#fff"/></svg><svg id="mail" viewBox="-1 -1 66 50" width="66" height="50" x="144.4" y="66" xmlns="http://www.w3.org/2000/svg"><path d="M0 0v8l32 16L64 8V0H0zm0 16v32h64V16L32 32 0 16z" fill="#559897"/></svg><svg id="rain" viewBox="-1 -1 66 66" width="66" height="66" x="132" y="123" xmlns="http://www.w3.org/2000/svg"><style>.ist0{fill:#d4953d}</style><path class="ist0" d="M42.1 0c-.9 0-1.6.8-1.6 1.6v4.5c0 .9.8 1.6 1.6 1.6s1.6-.8 1.6-1.6V1.6c0-.8-.8-1.6-1.6-1.6zm15.4 6.4c-.6-.6-1.6-.6-2.3 0l-3.1 3.1c-.6.6-.6 1.6 0 2.3.6.6 1.6.6 2.3 0l3.1-3.1c.7-.7.7-1.7 0-2.3zM31.9 9.6l-3.1-3.1c-.6-.6-1.6-.6-2.3 0-.6.6-.6 1.6 0 2.3l3.1 3.1c.6.6 1.6.6 2.3 0 .7-.7.7-1.7 0-2.3zm11.4 39.5c-1.3-1.3-3-2-4.8-2H20.6c-.9 0-1.6.7-1.6 1.6 0 .9.7 1.6 1.6 1.6h17.8c1 0 1.9.4 2.5 1.1.6.6 1.1 1.6 1.1 2.5 0 1-.4 1.9-1.1 2.5-.6.6-1.6 1.1-2.5 1.1-1 0-1.9-.4-2.5-1.1-.6-.6-1.1-1.6-1.1-2.5 0-.9-.8-1.6-1.6-1.6s-1.6.8-1.6 1.6c0 1.9.8 3.6 2 4.8s3 2 4.8 2c1.9 0 3.6-.8 4.8-2 1.3-1.3 2-3 2-4.8s-.7-3.5-1.9-4.8z"/><path class="ist0" d="M57.5 35.1L54.4 32c-.6-.6-1.6-.6-2.3 0-.3.3-.4.5-.4.8-.1-1.4-.4-2.8-.9-4 .6-.8 1.2-1.8 1.6-2.7.6-1.3.8-2.8.8-4.2 0-3.1-1.3-5.8-3.3-7.8s-4.8-3.2-7.8-3.2c-2.1 0-4 .6-5.7 1.6-1.2.8-2.3 1.7-3.1 2.8-2.5-1.7-5.5-2.7-8.7-2.7-3.8 0-7.4 1.4-10.1 3.7-2.4 2.1-4.1 4.8-5 8.1-2.5.3-4.7 1.4-6.3 3.1-2 1.9-3.2 4.6-3.2 7.6s1.2 5.7 3.1 7.6c1.9 1.9 4.7 3.1 7.6 3.1h28.6c3.4 0 6.4-1.4 8.7-3.6 2.2-2.2 3.6-5.3 3.6-8.7v-.1c.1.3.2.5.4.7l3.1 3.1c.6.6 1.6.6 2.3 0 .7-.5.7-1.5.1-2.1zM45.8 40c-1.6 1.6-3.9 2.6-6.3 2.6H10.8c-2.1 0-4-.8-5.3-2.2s-2.2-3.3-2.2-5.3c0-2.1.8-4 2.2-5.3 1.4-1.4 3.3-2.2 5.3-2.2.3 0 .6-.1.8-.2.4-.3.6-.6.7-1.1.4-3 1.9-5.6 4.1-7.4 2.1-1.8 5-3 8-3 2.6 0 5 .8 7 2.2 1.5 1.1 2.8 2.5 3.7 4.1-.3.1-.5.2-.8.3-1.6.7-3 1.8-4.1 3-.6.7-.5 1.7.1 2.3.7.6 1.7.5 2.3-.1.9-.9 1.9-1.7 3-2.3 1.1-.5 2.4-.8 3.7-.8 2.5 0 4.7 1 6.3 2.6 1.6 1.6 2.6 3.9 2.6 6.3.2 2.6-.8 4.8-2.4 6.5zm3.5-15.1c-.1.3-.3.6-.4.9-.3-.3-.5-.6-.8-.8-2.2-2.2-5.3-3.6-8.7-3.6-.3 0-.7 0-1 .1-.7-1.5-1.6-2.9-2.8-4 .6-.9 1.4-1.6 2.3-2.1 1.2-.8 2.6-1.1 4-1.1 2.1 0 4.1.9 5.5 2.3 1.4 1.4 2.3 3.4 2.3 5.5.2.9 0 1.9-.4 2.8zm13.1-4.6h-4.5c-.9 0-1.6.8-1.6 1.6 0 .9.8 1.6 1.6 1.6h4.5c.9 0 1.6-.8 1.6-1.6-.1-.8-.8-1.6-1.6-1.6z"/></svg><svg id="star" data-name="Layer 1" width="66" height="66" viewBox="-1 -1 66 66" x="210.4" xmlns="http://www.w3.org/2000/svg"><path d="M32 0l-8 24H0l20 16-8 24 20-16 20 16-8-24 20-16H40z" fill="#d4953f"/></svg><svg id="twitter" data-name="Layer 1" width="53.78" height="44.06" viewBox="-1 -1 53.78 44.06" x="210.4" y="132" xmlns="http://www.w3.org/2000/svg"><path d="M51.78 5a22.23 22.23 0 0 1-5.32 5.52v1.38a30.15 30.15 0 0 1-1.25 8.53 30.81 30.81 0 0 1-3.76 8.13 32.1 32.1 0 0 1-6.06 6.92 27 27 0 0 1-8.48 4.8 31 31 0 0 1-10.62 1.8A29.47 29.47 0 0 1 0 37.29a22.71 22.71 0 0 0 2.56.13 20.78 20.78 0 0 0 13.17-4.53 10.63 10.63 0 0 1-9.92-7.36 13.45 13.45 0 0 0 2 .16 11 11 0 0 0 2.79-.36 10.44 10.44 0 0 1-6.09-3.67 10.25 10.25 0 0 1-2.41-6.75v-.13a10.52 10.52 0 0 0 4.8 1.34 10.6 10.6 0 0 1-3.45-3.78 10.34 10.34 0 0 1-1.28-5.07 10.4 10.4 0 0 1 1.45-5.33 30.08 30.08 0 0 0 9.71 7.83A29.57 29.57 0 0 0 25.53 13a11.79 11.79 0 0 1-.26-2.43 10.23 10.23 0 0 1 3-7.48 10.64 10.64 0 0 1 15 0l.21.22A20.81 20.81 0 0 0 50.33.8a10.3 10.3 0 0 1-4.67 5.85A21.14 21.14 0 0 0 51.78 5z" fill="#fff"/></svg><svg id="wifi" viewBox="-1 -1 66 66" width="66" height="66" x="210.4" y="66" xmlns="http://www.w3.org/2000/svg"><style>.lst0{fill:#d4953d}</style><g id="lXMLID_358_"><path id="lXMLID_362_" class="lst0" d="M27.5 53.3c-2.5 2.5-2.5 6.4 0 8.9s6.4 2.5 8.9 0 2.5-6.4 0-8.9c-2.4-2.5-6.4-2.5-8.9 0z"/><path id="lXMLID_361_" class="lst0" d="M32 38.3c-5.2 0-10.1 2-13.7 5.7-1.4 1.4-1.4 3.8 0 5.2 1.4 1.4 3.8 1.4 5.2 0 2.3-2.3 5.3-3.5 8.5-3.5s6.2 1.3 8.5 3.5c.7.7 1.7 1.1 2.6 1.1.9 0 1.9-.4 2.6-1.1 1.4-1.4 1.4-3.8 0-5.2-3.6-3.7-8.5-5.7-13.7-5.7z"/><path id="lXMLID_360_" class="lst0" d="M32 26.1c-8.4 0-16.4 3.3-22.3 9.2-1.4 1.4-1.4 3.8 0 5.2 1.4 1.4 3.8 1.4 5.2 0 4.6-4.6 10.6-7.1 17.1-7.1 6.5 0 12.5 2.5 17.1 7.1.7.7 1.7 1.1 2.6 1.1.9 0 1.9-.4 2.6-1.1 1.4-1.4 1.4-3.8 0-5.2-5.9-5.9-13.9-9.2-22.3-9.2z"/><path id="lXMLID_359_" class="lst0" d="M62.9 26.8C54.7 18.5 43.7 14 32 14S9.3 18.5 1.1 26.8c-1.4 1.4-1.4 3.8 0 5.2.7.7 1.7 1.1 2.6 1.1s1.9-.4 2.6-1.1c6.9-6.9 16-10.7 25.7-10.7S50.8 25.1 57.7 32c1.4 1.4 3.8 1.4 5.2 0 1.5-1.4 1.5-3.8 0-5.2z"/></g></svg><svg id="youtube" data-name="Layer 1" width="36.75" height="44" viewBox="-1 -1 36.75 44" x="67.24" y="189" xmlns="http://www.w3.org/2000/svg"><path d="M22.13 29.15v5q0 1.57-.91 1.57a1.5 1.5 0 0 1-1.06-.52v-7.11a1.5 1.5 0 0 1 1.06-.54q.91 0 .91 1.6zm7.92 0v1.08h-2.1v-1.06q0-1.59 1.06-1.59t1 1.59zM7.42 24h2.5v-2.14h-7.3v2.2h2.46V37.4h2.34V24zm6.75 13.4h2.09V25.82h-2.09v8.86a1.86 1.86 0 0 1-1.31 1 .48.48 0 0 1-.49-.47 6.52 6.52 0 0 1 0-.82v-8.57h-2.14V35a5.79 5.79 0 0 0 .19 1.71 1.26 1.26 0 0 0 1.36.87 3.43 3.43 0 0 0 2.39-1.43v1.25zm10.05-3.47v-4.6A8.33 8.33 0 0 0 24 27a1.63 1.63 0 0 0-1.67-1.31A2.82 2.82 0 0 0 20.16 27v-5.1h-2.08v15.5h2.09v-1.13a2.91 2.91 0 0 0 2.18 1.31A1.62 1.62 0 0 0 24 36.27a8.61 8.61 0 0 0 .22-2.35zm7.92-.24v-.3H30a11.6 11.6 0 0 1 0 1.43.9.9 0 0 1-.94.85q-1.08 0-1.08-1.61V32h4.19v-2.41a4.65 4.65 0 0 0-.66-2.72 3.2 3.2 0 0 0-5 0 4.52 4.52 0 0 0-.66 2.72v4.05a4.4 4.4 0 0 0 .66 2.72 3 3 0 0 0 2.49 1.2 2.9 2.9 0 0 0 3-2.51 10.31 10.31 0 0 0 .09-1.36zM17.89 12.3V7.38q0-1.61-1-1.61t-1 1.61v4.92q0 1.64 1 1.64t1-1.64zm16.85 17.6a40.6 40.6 0 0 1-.61 8.2 4.45 4.45 0 0 1-1.36 2.32 4.1 4.1 0 0 1-2.39 1.08 125.31 125.31 0 0 1-13 .49 125.31 125.31 0 0 1-13-.49A4.15 4.15 0 0 1 2 40.42 4.28 4.28 0 0 1 .63 38.1 39.76 39.76 0 0 1 0 29.9a40.6 40.6 0 0 1 .61-8.2A4.45 4.45 0 0 1 2 19.37a4.25 4.25 0 0 1 2.41-1.1q4.29-.47 13-.47t13 .47a4.4 4.4 0 0 1 3.75 3.42 39.76 39.76 0 0 1 .58 8.21zM11.35 0h2.39l-2.83 9.35v6.35H8.57V9.35a39.68 39.68 0 0 0-1.43-5Q6.27 2 5.61 0H8.1l1.67 6.16zM20 7.8v4.1a4.59 4.59 0 0 1-.66 2.76 2.88 2.88 0 0 1-2.49 1.19 2.9 2.9 0 0 1-2.46-1.19 4.68 4.68 0 0 1-.66-2.76V7.8a4.59 4.59 0 0 1 .66-2.74 2.9 2.9 0 0 1 2.46-1.19 2.88 2.88 0 0 1 2.49 1.19A4.59 4.59 0 0 1 20 7.8zM27.87 4v11.7h-2.13v-1.27a3.37 3.37 0 0 1-2.41 1.45A1.31 1.31 0 0 1 22 15a6 6 0 0 1-.19-1.76V4h2.13v8.6a6.14 6.14 0 0 0 0 .82.49.49 0 0 0 .47.52 1.87 1.87 0 0 0 1.31-1V4h2.16z" fill="#fff"/></svg></svg>