<?xml version="1.0" encoding="utf-8"?>
<!-- Generator: Adobe Illustrator 19.2.0, SVG Export Plug-In . SVG Version: 6.00 Build 0)  -->
<svg version="1.1" id="Layer_1" xmlns="http://www.w3.org/2000/svg" xmlns:xlink="http://www.w3.org/1999/xlink" x="0px" y="0px"
	 viewBox="0 0 142.4 59.5" style="enable-background:new 0 0 142.4 59.5;" xml:space="preserve">
<title>clear-view-escapes</title>
<g>
	<path d="M9.8,25.5l-4-12.9H5.8C5.9,15.2,6,17,6,17.8v7.6H2.9V9.1h4.7l3.9,12.6h0.1l4.1-12.6h4.7v16.4h-3.2v-7.8c0-0.4,0-0.8,0-1.3
		c0-0.5,0.1-1.8,0.2-3.8h-0.1L13,25.5H9.8z"/>
	<path d="M32.3,25.5l-0.7-1.7h-0.1c-0.6,0.7-1.2,1.2-1.8,1.5c-0.6,0.3-1.4,0.4-2.4,0.4c-1.2,0-2.2-0.3-2.8-1c-0.7-0.7-1-1.7-1-2.9
		c0-1.3,0.5-2.3,1.4-2.9c0.9-0.6,2.3-1,4.2-1l2.2-0.1v-0.6c0-1.3-0.7-1.9-2-1.9c-1,0-2.2,0.3-3.5,0.9l-1.1-2.3
		c1.4-0.8,3-1.1,4.8-1.1c1.7,0,3,0.4,3.9,1.1s1.3,1.8,1.3,3.3v8.4H32.3z M31.3,19.7l-1.3,0c-1,0-1.7,0.2-2.2,0.5S27,21.1,27,21.8
		c0,1,0.6,1.4,1.7,1.4c0.8,0,1.4-0.2,1.9-0.7c0.5-0.5,0.7-1.1,0.7-1.8V19.7z"/>
	<path d="M41.5,18.7l1.5-1.9l3.5-3.8h3.9l-5,5.4l5.3,7.1h-4l-3.6-5.1l-1.5,1.2v3.9h-3.4V8h3.4v7.8L41.5,18.7L41.5,18.7z"/>
	<path d="M58.1,25.7c-2,0-3.6-0.6-4.7-1.7s-1.7-2.7-1.7-4.7c0-2.1,0.5-3.7,1.6-4.9c1.1-1.1,2.5-1.7,4.4-1.7c1.8,0,3.2,0.5,4.1,1.5
		s1.5,2.4,1.5,4.2v1.7h-8.1c0,1,0.3,1.7,0.9,2.3s1.3,0.8,2.3,0.8c0.8,0,1.5-0.1,2.1-0.2s1.4-0.4,2.1-0.8v2.7
		c-0.6,0.3-1.2,0.5-1.9,0.7C60,25.6,59.1,25.7,58.1,25.7z M57.7,15.1c-0.7,0-1.3,0.2-1.7,0.7c-0.4,0.5-0.6,1.1-0.7,2h4.8
		c0-0.8-0.2-1.5-0.7-2C59,15.4,58.4,15.1,57.7,15.1z"/>
	<path d="M78.6,25.5h-3.5V12h-4.5V9.1h12.4V12h-4.5V25.5z"/>
	<path d="M92.4,12.7c0.5,0,0.8,0,1.2,0.1L93.3,16c-0.3-0.1-0.6-0.1-1-0.1c-1.1,0-1.9,0.3-2.6,0.8s-0.9,1.3-0.9,2.4v6.4h-3.4V12.9
		h2.6l0.5,2.1h0.2c0.4-0.7,0.9-1.3,1.6-1.7C90.9,12.9,91.6,12.7,92.4,12.7z"/>
	<path d="M103.8,25.5l-0.7-1.7H103c-0.6,0.7-1.2,1.2-1.8,1.5c-0.6,0.3-1.4,0.4-2.4,0.4c-1.2,0-2.2-0.3-2.8-1s-1-1.7-1-2.9
		c0-1.3,0.5-2.3,1.4-2.9c0.9-0.6,2.3-1,4.2-1l2.2-0.1v-0.6c0-1.3-0.7-1.9-2-1.9c-1,0-2.2,0.3-3.5,0.9l-1.1-2.3
		c1.4-0.8,3-1.1,4.8-1.1c1.7,0,3,0.4,3.9,1.1s1.3,1.8,1.3,3.3v8.4H103.8z M102.8,19.7l-1.3,0c-1,0-1.7,0.2-2.2,0.5s-0.7,0.8-0.7,1.5
		c0,1,0.6,1.4,1.7,1.4c0.8,0,1.4-0.2,1.9-0.7s0.7-1.1,0.7-1.8V19.7z"/>
	<path d="M112.7,25.5l-4.8-12.6h3.6l2.4,7.2c0.3,0.9,0.4,1.8,0.5,2.6h0.1c0-0.7,0.2-1.6,0.5-2.6l2.4-7.2h3.6l-4.8,12.6H112.7z"/>
	<path d="M128.4,25.7c-2,0-3.6-0.6-4.7-1.7s-1.7-2.7-1.7-4.7c0-2.1,0.5-3.7,1.6-4.9c1.1-1.1,2.5-1.7,4.4-1.7c1.8,0,3.2,0.5,4.1,1.5
		s1.5,2.4,1.5,4.2v1.7h-8.1c0,1,0.3,1.7,0.9,2.3s1.3,0.8,2.3,0.8c0.8,0,1.5-0.1,2.1-0.2s1.4-0.4,2.1-0.8v2.7
		c-0.6,0.3-1.2,0.5-1.9,0.7C130.3,25.6,129.4,25.7,128.4,25.7z M128,15.1c-0.7,0-1.3,0.2-1.7,0.7c-0.4,0.5-0.6,1.1-0.7,2h4.8
		c0-0.8-0.2-1.5-0.7-2C129.3,15.4,128.7,15.1,128,15.1z"/>
	<path d="M139.8,25.5h-3.4V8h3.4V25.5z"/>
	<path d="M46.3,53.1h-1.9l-3.3-11c-0.2-0.5-0.3-1.1-0.5-1.8c-0.2-0.7-0.3-1.2-0.3-1.3c-0.2,1-0.4,2.1-0.8,3.2l-3.2,10.9h-1.9
		L30,36.7h2l2.6,10.1c0.4,1.4,0.6,2.7,0.8,3.9c0.2-1.4,0.5-2.7,0.9-4l2.9-10h2l3.1,10.1c0.4,1.2,0.7,2.5,0.9,3.9
		c0.1-1.1,0.4-2.4,0.8-3.9l2.6-10.1h2L46.3,53.1z"/>
	<path d="M52.8,37.4c0-0.4,0.1-0.7,0.3-0.9c0.2-0.2,0.5-0.3,0.8-0.3c0.3,0,0.6,0.1,0.8,0.3S55,37,55,37.4c0,0.4-0.1,0.7-0.3,0.9
		s-0.5,0.3-0.8,0.3c-0.3,0-0.6-0.1-0.8-0.3S52.8,37.9,52.8,37.4z M54.8,53.1H53V40.8h1.9V53.1z"/>
	<path d="M62.7,51.8c0.3,0,0.6,0,1-0.1s0.6-0.1,0.7-0.2V53c-0.2,0.1-0.5,0.2-0.9,0.2c-0.4,0.1-0.7,0.1-1.1,0.1
		c-2.4,0-3.6-1.3-3.6-3.8v-7.3h-1.8v-0.9l1.8-0.8l0.8-2.6h1.1v2.9h3.6v1.4h-3.6v7.2c0,0.7,0.2,1.3,0.5,1.7S62.1,51.8,62.7,51.8z"/>
	<path d="M75.3,53.1v-8c0-1-0.2-1.8-0.7-2.2c-0.5-0.5-1.2-0.7-2.1-0.7c-1.3,0-2.2,0.4-2.8,1.1c-0.6,0.7-0.9,1.9-0.9,3.5v6.4h-1.9
		V35.6h1.9v5.3c0,0.6,0,1.2-0.1,1.6h0.1c0.4-0.6,0.9-1.1,1.6-1.4c0.7-0.3,1.5-0.5,2.3-0.5c1.5,0,2.6,0.4,3.4,1.1
		c0.8,0.7,1.1,1.9,1.1,3.4v8H75.3z"/>
	<path d="M99.7,36.7v10.6c0,1.9-0.6,3.3-1.7,4.4c-1.1,1.1-2.7,1.6-4.7,1.6s-3.5-0.5-4.6-1.6s-1.6-2.6-1.6-4.4V36.7H89v10.7
		c0,1.4,0.4,2.4,1.1,3.2c0.7,0.7,1.8,1.1,3.3,1.1c1.4,0,2.5-0.4,3.2-1.1c0.7-0.7,1.1-1.8,1.1-3.2V36.7H99.7z"/>
	<path d="M111.7,49.7c0,1.1-0.4,2-1.3,2.7c-0.9,0.6-2.1,0.9-3.6,0.9c-1.6,0-2.9-0.3-3.8-0.8v-1.7c0.6,0.3,1.2,0.5,1.9,0.7
		s1.3,0.3,2,0.3c1,0,1.7-0.2,2.2-0.5c0.5-0.3,0.8-0.8,0.8-1.4c0-0.5-0.2-0.9-0.6-1.2c-0.4-0.3-1.2-0.7-2.4-1.2
		c-1.1-0.4-2-0.8-2.4-1.1c-0.5-0.3-0.8-0.7-1.1-1.1c-0.2-0.4-0.4-0.9-0.4-1.4c0-1,0.4-1.8,1.2-2.4c0.8-0.6,1.9-0.9,3.4-0.9
		c1.3,0,2.6,0.3,3.9,0.8l-0.7,1.5c-1.2-0.5-2.4-0.8-3.4-0.8c-0.9,0-1.5,0.1-2,0.4s-0.7,0.7-0.7,1.1c0,0.3,0.1,0.6,0.3,0.8
		c0.2,0.2,0.4,0.5,0.8,0.7c0.4,0.2,1.1,0.5,2.2,0.9c1.5,0.5,2.4,1.1,3,1.6S111.7,48.9,111.7,49.7z"/>
</g>
</svg>
