<?xml version="1.0" encoding="utf-8"?>
<!-- Generator: Adobe Illustrator 19.2.0, SVG Export Plug-In . SVG Version: 6.00 Build 0)  -->
<svg version="1.1" id="Capa_1" xmlns="http://www.w3.org/2000/svg" xmlns:xlink="http://www.w3.org/1999/xlink" x="0px" y="0px"
	 viewBox="0 0 64 64" style="enable-background:new 0 0 64 64;" xml:space="preserve">
<style type="text/css">
	.st0{fill:#D4953D;}
</style>
<g>
	<g>
		<path class="st0" d="M56.4,56l-13.7-5.7l13.7-5.7c2.1-0.9,3.1-3.3,2.2-5.4c-0.9-2.1-3.3-3.1-5.4-2.2l-21.4,8.8L10.6,37
			c-2.1-0.9-4.5,0.1-5.4,2.2c-0.9,2.1,0.1,4.5,2.2,5.4l13.7,5.7L7.4,56c-2.1,0.9-3.1,3.3-2.2,5.4C5.8,63,7.4,63.9,9,63.9
			c0.5,0,1.1-0.1,1.6-0.3l21.4-8.8l21.3,8.9c0.5,0.2,1.1,0.3,1.6,0.3c1.6,0,3.2-1,3.8-2.6C59.5,59.3,58.5,56.9,56.4,56z"/>
		<path class="st0" d="M31.9,40.6c9.7,0,17.5-7.8,17.5-17.5c0-2.4-1.1-5.6-2.8-9.1c-0.2-0.5-0.7-0.7-1.2-0.6c-0.5,0.1-0.8,0.5-0.9,1
			c-0.1,3.6-1,6.1-2.3,7.8c-0.1,0.2-0.4,0.3-0.6,0.1c-0.2-0.1-0.3-0.4-0.2-0.6c0.8-2.2,0.4-5.5-3.9-10.2c-4-4.4-5-7.8-4.9-10.3
			c0-0.5-0.2-1-0.7-1.2c-0.5-0.2-1-0.1-1.3,0.3c-4.1,4.3-9.2,11.3-7.7,18.4c0.1,0.3-0.1,0.6-0.4,0.7c-0.3,0.1-0.6,0-0.8-0.3
			c-1.1-1.7-2-4.2-1.7-7.6c0.1-0.5-0.3-1.1-0.8-1.2c-0.5-0.2-1.1,0.1-1.4,0.5c-1.9,3.4-3.6,7.7-3.6,12.1
			C14.4,32.8,22.3,40.6,31.9,40.6z"/>
	</g>
</g>
</svg>
