<?xml version="1.0" encoding="utf-8"?>
<!-- Generator: Adobe Illustrator 19.2.0, SVG Export Plug-In . SVG Version: 6.00 Build 0)  -->
<svg version="1.1" id="Capa_1" xmlns="http://www.w3.org/2000/svg" xmlns:xlink="http://www.w3.org/1999/xlink" x="0px" y="0px"
	 viewBox="0 0 64 64" style="enable-background:new 0 0 64 64;" xml:space="preserve">
<style type="text/css">
	.st0{fill:#D4953D;}
</style>
<g>
	<path class="st0" d="M63.9,29.9c-1-16-13.8-28.7-29.8-29.8V0H32h-2.1v0.1c-16,1-28.7,13.8-29.8,29.8H0V32v2.1h0.1
		c1,16,13.8,28.7,29.8,29.8V64H32h2.1v-0.1c16-1,28.7-13.8,29.8-29.8H64V32L63.9,29.9L63.9,29.9z M20,7c-2.1,2.7-3.8,6.2-5,10.1H8.6
		C11.4,12.7,15.4,9.2,20,7z M6.4,21.3h7.5c-0.6,2.7-0.9,5.6-1,8.5H4.3C4.6,26.9,5.3,24,6.4,21.3z M4.3,34.1h8.5c0.1,3,0.5,5.8,1,8.5
		H6.4C5.3,40,4.6,37.1,4.3,34.1z M8.6,46.9H15c1.2,3.9,3,7.4,5,10.1C15.4,54.8,11.4,51.3,8.6,46.9z M29.9,59.5
		c-4.4-1.2-8.2-5.9-10.5-12.5h10.5V59.5z M29.9,42.7H18.2c-0.6-2.7-1-5.5-1.1-8.5h12.8V42.7z M29.9,29.9H17.1c0.1-3,0.5-5.9,1.1-8.5
		h11.7V29.9z M29.9,17.1H19.4c2.3-6.6,6.1-11.4,10.5-12.5V17.1z M55.4,17.1H49c-1.3-3.9-3-7.4-5-10.1C48.6,9.2,52.6,12.7,55.4,17.1z
		 M34.1,4.5c4.4,1.2,8.2,5.9,10.5,12.5H34.1V4.5z M34.1,21.3h11.6c0.6,2.7,1,5.5,1.1,8.5H34.1V21.3z M34.1,34.1h12.8
		c-0.1,3-0.5,5.9-1.1,8.5H34.1V34.1z M34.1,59.5V46.9h10.5C42.3,53.6,38.5,58.3,34.1,59.5z M44,57c2.1-2.7,3.8-6.2,5-10.1h6.4
		C52.6,51.3,48.6,54.8,44,57z M57.6,42.7h-7.5c0.6-2.7,0.9-5.6,1-8.5h8.5C59.4,37.1,58.7,40,57.6,42.7z M51.2,29.9
		c-0.1-3-0.5-5.8-1-8.5h7.5c1.1,2.7,1.8,5.5,2,8.5H51.2z"/>
</g>
</svg>
