<?xml version="1.0" encoding="utf-8"?>
<!-- Generator: Adobe Illustrator 19.2.0, SVG Export Plug-In . SVG Version: 6.00 Build 0)  -->
<svg version="1.1" id="Capa_1" xmlns="http://www.w3.org/2000/svg" xmlns:xlink="http://www.w3.org/1999/xlink" x="0px" y="0px"
	 viewBox="0 0 64 64" style="enable-background:new 0 0 64 64;" xml:space="preserve">
<style type="text/css">
	.st0{fill:#D4953D;}
</style>
<g>
	<g>
		<path class="st0" d="M42.1,0c-0.9,0-1.6,0.8-1.6,1.6v4.5c0,0.9,0.8,1.6,1.6,1.6s1.6-0.8,1.6-1.6V1.6C43.7,0.8,42.9,0,42.1,0z"/>
	</g>
</g>
<g>
	<g>
		<path class="st0" d="M57.5,6.4c-0.6-0.6-1.6-0.6-2.3,0l-3.1,3.1c-0.6,0.6-0.6,1.6,0,2.3c0.6,0.6,1.6,0.6,2.3,0l3.1-3.1
			C58.2,8,58.2,7,57.5,6.4z"/>
	</g>
</g>
<g>
	<g>
		<path class="st0" d="M31.9,9.6l-3.1-3.1c-0.6-0.6-1.6-0.6-2.3,0c-0.6,0.6-0.6,1.6,0,2.3l3.1,3.1c0.6,0.6,1.6,0.6,2.3,0
			C32.6,11.2,32.6,10.2,31.9,9.6z"/>
	</g>
</g>
<g>
	<g>
		<path class="st0" d="M43.3,49.1c-1.3-1.3-3-2-4.8-2c-0.1,0-0.1,0-0.1,0H20.6c-0.9,0-1.6,0.7-1.6,1.6c0,0.9,0.7,1.6,1.6,1.6h17.7
			c0.1,0,0.1,0,0.1,0c1,0,1.9,0.4,2.5,1.1c0.6,0.6,1.1,1.6,1.1,2.5c0,1-0.4,1.9-1.1,2.5c-0.6,0.6-1.6,1.1-2.5,1.1
			c-1,0-1.9-0.4-2.5-1.1c-0.6-0.6-1.1-1.6-1.1-2.5c0-0.9-0.8-1.6-1.6-1.6s-1.6,0.8-1.6,1.6c0,1.9,0.8,3.6,2,4.8s3,2,4.8,2
			c1.9,0,3.6-0.8,4.8-2c1.3-1.3,2-3,2-4.8S44.5,50.4,43.3,49.1z"/>
	</g>
</g>
<g>
	<g>
		<path class="st0" d="M57.5,35.1L54.4,32c-0.6-0.6-1.6-0.6-2.3,0c-0.3,0.3-0.4,0.5-0.4,0.8c-0.1-1.4-0.4-2.8-0.9-4
			c0.6-0.8,1.2-1.8,1.6-2.7c0.6-1.3,0.8-2.8,0.8-4.2c0-3.1-1.3-5.8-3.3-7.8s-4.8-3.2-7.8-3.2c-2.1,0-4,0.6-5.7,1.6
			c-1.2,0.8-2.3,1.7-3.1,2.8c-2.5-1.7-5.5-2.7-8.7-2.7c-3.8,0-7.4,1.4-10.1,3.7c-2.4,2.1-4.1,4.8-5,8.1c-2.5,0.3-4.7,1.4-6.3,3.1
			C1.2,29.4,0,32.1,0,35.1s1.2,5.7,3.1,7.6c1.9,1.9,4.7,3.1,7.6,3.1h28.6c3.4,0,6.4-1.4,8.7-3.6c2.2-2.2,3.6-5.3,3.6-8.7v-0.1
			c0.1,0.3,0.2,0.5,0.4,0.7l3.1,3.1c0.6,0.6,1.6,0.6,2.3,0C58.1,36.7,58.1,35.7,57.5,35.1z M45.8,40c-1.6,1.6-3.9,2.6-6.3,2.6H10.8
			c-2.1,0-4-0.8-5.3-2.2s-2.2-3.3-2.2-5.3c0-2.1,0.8-4,2.2-5.3c1.4-1.4,3.3-2.2,5.3-2.2c0.3,0,0.6-0.1,0.8-0.2
			c0.4-0.3,0.6-0.6,0.7-1.1c0.4-3,1.9-5.6,4.1-7.4c2.1-1.8,5-3,8-3c2.6,0,5,0.8,7,2.2c1.5,1.1,2.8,2.5,3.7,4.1
			c-0.3,0.1-0.5,0.2-0.8,0.3c-1.6,0.7-3,1.8-4.1,3c-0.6,0.7-0.5,1.7,0.1,2.3c0.7,0.6,1.7,0.5,2.3-0.1c0.9-0.9,1.9-1.7,3-2.3
			c1.1-0.5,2.4-0.8,3.7-0.8c2.5,0,4.7,1,6.3,2.6c1.6,1.6,2.6,3.9,2.6,6.3C48.4,36.1,47.4,38.3,45.8,40z M49.3,24.9
			c-0.1,0.3-0.3,0.6-0.4,0.9c-0.3-0.3-0.5-0.6-0.8-0.8c-2.2-2.2-5.3-3.6-8.7-3.6c-0.3,0-0.7,0-1,0.1c-0.7-1.5-1.6-2.9-2.8-4
			c0.6-0.9,1.4-1.6,2.3-2.1c1.2-0.8,2.6-1.1,4-1.1c2.1,0,4.1,0.9,5.5,2.3c1.4,1.4,2.3,3.4,2.3,5.5C49.9,23,49.7,24,49.3,24.9z"/>
	</g>
</g>
<g>
	<g>
		<path class="st0" d="M62.4,20.3h-4.5c-0.9,0-1.6,0.8-1.6,1.6c0,0.9,0.8,1.6,1.6,1.6h4.5c0.9,0,1.6-0.8,1.6-1.6
			C63.9,21.1,63.2,20.3,62.4,20.3z"/>
	</g>
</g>
</svg>
