<?xml version="1.0" encoding="utf-8"?>
<!-- Generator: Adobe Illustrator 19.2.0, SVG Export Plug-In . SVG Version: 6.00 Build 0)  -->
<svg version="1.1" id="Capa_1" xmlns="http://www.w3.org/2000/svg" xmlns:xlink="http://www.w3.org/1999/xlink" x="0px" y="0px"
	 viewBox="0 0 64 64" style="enable-background:new 0 0 64 64;" xml:space="preserve">
<style type="text/css">
	.st0{fill:#D4953D;}
</style>
<g id="XMLID_358_">
	<path id="XMLID_362_" class="st0" d="M27.5,53.3c-2.5,2.5-2.5,6.4,0,8.9c2.5,2.5,6.4,2.5,8.9,0c2.5-2.5,2.5-6.4,0-8.9
		C34,50.8,30,50.8,27.5,53.3z"/>
	<path id="XMLID_361_" class="st0" d="M32,38.3c-5.2,0-10.1,2-13.7,5.7c-1.4,1.4-1.4,3.8,0,5.2c1.4,1.4,3.8,1.4,5.2,0
		c2.3-2.3,5.3-3.5,8.5-3.5s6.2,1.3,8.5,3.5c0.7,0.7,1.7,1.1,2.6,1.1c0.9,0,1.9-0.4,2.6-1.1c1.4-1.4,1.4-3.8,0-5.2
		C42.1,40.3,37.2,38.3,32,38.3z"/>
	<path id="XMLID_360_" class="st0" d="M32,26.1c-8.4,0-16.4,3.3-22.3,9.2c-1.4,1.4-1.4,3.8,0,5.2c1.4,1.4,3.8,1.4,5.2,0
		c4.6-4.6,10.6-7.1,17.1-7.1c6.5,0,12.5,2.5,17.1,7.1c0.7,0.7,1.7,1.1,2.6,1.1c0.9,0,1.9-0.4,2.6-1.1c1.4-1.4,1.4-3.8,0-5.2
		C48.4,29.4,40.4,26.1,32,26.1z"/>
	<path id="XMLID_359_" class="st0" d="M62.9,26.8C54.7,18.5,43.7,14,32,14S9.3,18.5,1.1,26.8c-1.4,1.4-1.4,3.8,0,5.2
		c0.7,0.7,1.7,1.1,2.6,1.1s1.9-0.4,2.6-1.1c6.9-6.9,16-10.7,25.7-10.7c9.7,0,18.8,3.8,25.7,10.7c1.4,1.4,3.8,1.4,5.2,0
		C64.4,30.6,64.4,28.2,62.9,26.8z"/>
</g>
</svg>
